<?xml version="1.0" standalone="no"?>
<!DOCTYPE svg PUBLIC "-//W3C//DTD SVG 20010904//EN"
 "http://www.w3.org/TR/2001/REC-SVG-20010904/DTD/svg10.dtd">
<svg version="1.0" xmlns="http://www.w3.org/2000/svg"
 width="512.000000pt" height="512.000000pt" viewBox="0 0 512.000000 512.000000"
 preserveAspectRatio="xMidYMid meet">

<g transform="translate(0.000000,512.000000) scale(0.100000,-0.100000)"
fill="#000000" stroke="none">
<path d="M833 5105 c-425 -77 -765 -427 -822 -848 -15 -109 -15 -3285 0 -3394
54 -395 347 -719 757 -836 l77 -22 1660 -3 c1167 -2 1685 0 1745 8 211 28 418
130 567 282 123 125 188 225 243 377 62 169 60 109 60 1888 0 1096 -3 1647
-11 1700 -50 366 -318 688 -674 810 -161 55 -102 53 -1884 52 -1304 -1 -1661
-4 -1718 -14z m1905 -886 c199 -22 354 -66 542 -156 636 -302 1015 -980 940
-1681 -84 -775 -706 -1397 -1482 -1481 -505 -55 -1004 124 -1365 490 -130 132
-221 260 -303 424 -76 154 -109 244 -139 380 -130 589 56 1177 504 1596 342
319 832 480 1303 428z"/>
<path d="M2505 3975 c-108 -58 -220 -258 -294 -522 -50 -180 -50 -169 6 -177
148 -20 708 -14 730 8 3 2 -5 44 -17 93 -87 348 -231 594 -356 609 -25 3 -50
-1 -69 -11z"/>
<path d="M2029 3886 c-116 -47 -230 -111 -335 -190 -78 -58 -244 -221 -244
-240 0 -21 246 -99 412 -131 l66 -12 27 109 c37 153 79 276 136 397 27 57 48
105 47 107 -2 1 -51 -17 -109 -40z"/>
<path d="M2980 3926 c0 -2 22 -50 49 -107 57 -121 99 -244 136 -397 l27 -109
66 12 c152 29 412 109 412 127 0 17 -104 128 -180 192 -95 80 -229 168 -323
210 -78 36 -187 78 -187 72z"/>
<path d="M1264 3163 c-65 -143 -123 -352 -124 -445 l0 -38 360 0 360 0 0 33
c0 41 18 257 25 318 l6 46 -93 18 c-117 22 -337 86 -413 120 -32 14 -64 25
-72 25 -8 0 -29 -33 -49 -77z"/>
<path d="M3720 3209 c-93 -38 -275 -90 -398 -115 l-94 -19 6 -45 c8 -61 26
-277 26 -317 l0 -33 361 0 362 0 -7 68 c-14 149 -128 483 -166 489 -8 1 -49
-12 -90 -28z"/>
<path d="M2126 3014 c-6 -30 -26 -268 -26 -310 l0 -24 461 0 461 0 -7 108 c-8
124 -21 242 -28 248 -2 3 -85 0 -183 -7 -168 -11 -447 -8 -605 7 l-67 7 -6
-29z"/>
<path d="M1144 2373 c3 -38 18 -113 32 -168 29 -114 110 -314 130 -322 8 -3
46 9 86 25 92 38 285 94 406 117 l93 18 -6 46 c-7 61 -25 277 -25 319 l0 32
-361 0 -362 0 7 -67z"/>
<path d="M2105 2333 c8 -121 21 -243 27 -249 3 -2 100 2 216 8 163 9 261 9
424 0 116 -6 213 -10 216 -8 5 6 18 125 27 254 l7 102 -462 0 -462 0 7 -107z"/>
<path d="M3260 2408 c0 -41 -18 -257 -26 -319 l-6 -47 67 -11 c113 -20 289
-68 404 -112 61 -22 114 -38 120 -35 18 11 100 221 125 321 14 55 29 130 32
168 l7 67 -362 0 -361 0 0 -32z"/>
<path d="M2345 1854 c-27 -2 -78 -6 -113 -10 l-63 -6 6 -31 c33 -166 118 -397
190 -512 76 -122 152 -176 224 -160 106 23 241 247 319 531 50 180 50 170 0
178 -52 7 -493 15 -563 10z"/>
<path d="M1905 1803 c-179 -33 -455 -116 -455 -138 0 -19 167 -183 244 -242
104 -78 219 -142 335 -189 58 -23 107 -41 109 -40 1 2 -20 50 -47 107 -57 121
-98 240 -136 395 -15 60 -27 109 -28 110 -1 0 -11 -1 -22 -3z"/>
<path d="M3166 1699 c-36 -145 -97 -322 -147 -421 -22 -44 -39 -82 -37 -84 2
-2 51 16 108 39 116 47 231 112 336 190 77 59 244 223 244 242 0 22 -237 94
-461 139 -14 3 -22 -17 -43 -105z"/>
</g>
</svg>
